<?xml version="1.0" encoding="utf-8"?>
<!-- Generator: Adobe Illustrator 16.0.0, SVG Export Plug-In . SVG Version: 6.00 Build 0)  -->
<!DOCTYPE svg PUBLIC "-//W3C//DTD SVG 1.1//EN" "http://www.w3.org/Graphics/SVG/1.1/DTD/svg11.dtd">
<svg version="1.1" id="Layer_1" xmlns="http://www.w3.org/2000/svg" xmlns:xlink="http://www.w3.org/1999/xlink" x="0px" y="0px"
	 width="3000px" height="3000px" viewBox="0 0 3000 3000" enable-background="new 0 0 3000 3000" xml:space="preserve">
<g>
	<path fill="#68BD45" d="M2631.595,1518.766c-54.638,0-99.368-42.809-99.368-111.272v-1.33c0-67.135,45.4-110.905,99.368-110.905
		c53.975,0,101.364,44.437,101.364,110.905v1.33C2732.959,1473.96,2685.643,1518.766,2631.595,1518.766z M2771.188,1227.093
		c-2.64-0.016-5.258,0.229-7.848,0.733c-2.593,0.504-5.111,1.257-7.552,2.261c-2.441,1.005-4.764,2.238-6.96,3.701
		c-2.197,1.465-4.227,3.13-6.098,4.997c-1.864,1.866-3.532,3.899-4.992,6.097c-1.465,2.196-2.7,4.517-3.705,6.958
		c-1,2.442-1.758,4.959-2.26,7.55c-0.503,2.592-0.746,5.208-0.732,7.848v23.66c-25.659-36.227-61.886-65.135-118.297-65.135
		c-81.328,0-161.326,64.468-161.326,180.324v1.332c-0.221,115.266,78.813,180.327,161.102,180.327
		c57.596,0,93.75-28.615,118.298-60.703c-3.992,62.625-42.29,95.674-109.496,95.674c-18.725,0.186-37.146-2.059-55.273-6.736
		c-18.134-4.676-35.344-11.621-51.637-20.842c-4.548-2.234-9.353-3.318-14.417-3.256c-2.178,0-4.33,0.211-6.463,0.625
		c-2.138,0.42-4.214,1.041-6.224,1.859c-2.016,0.82-3.934,1.826-5.755,3.016c-1.822,1.191-3.504,2.549-5.063,4.066
		c-1.556,1.52-2.952,3.174-4.192,4.965c-1.233,1.787-2.284,3.682-3.153,5.672c-0.869,1.996-1.542,4.057-2.011,6.18
		c-0.468,2.123-0.728,4.27-0.78,6.447c-0.073,3.477,0.395,6.873,1.405,10.197c1.01,3.322,2.514,6.408,4.506,9.254
		c1.995,2.846,4.383,5.311,7.165,7.395c2.777,2.084,5.813,3.68,9.103,4.799c20.871,10.303,42.65,18.07,65.333,23.303
		c22.678,5.232,45.657,7.789,68.935,7.678c62.545,0,111.273-14.791,142.917-46.727c28.904-28.984,44.358-72.387,44.358-131.018
		v-242.355c0.048-2.595-0.156-5.174-0.616-7.728c-0.463-2.558-1.166-5.042-2.123-7.46c-0.951-2.417-2.127-4.716-3.532-6.901
		c-1.411-2.182-3.018-4.207-4.823-6.071c-1.807-1.867-3.784-3.536-5.917-5.013c-2.138-1.474-4.401-2.727-6.783-3.755
		c-2.388-1.028-4.847-1.813-7.391-2.355c-2.537-0.542-5.106-0.828-7.706-0.861H2771.188z M2109.028,1268.273
		c-0.054-2.622,0.15-5.224,0.62-7.806c0.464-2.583,1.182-5.092,2.151-7.529c0.967-2.438,2.167-4.757,3.602-6.956
		c1.432-2.196,3.066-4.23,4.907-6.102c1.839-1.872,3.846-3.54,6.018-5.009c2.177-1.469,4.471-2.707,6.893-3.717
		c2.42-1.008,4.92-1.77,7.492-2.276c2.578-0.511,5.174-0.76,7.799-0.75c2.637-0.014,5.253,0.23,7.844,0.734
		c2.593,0.504,5.111,1.257,7.552,2.264c2.445,1.001,4.765,2.233,6.961,3.698c2.196,1.464,4.226,3.129,6.095,4.997
		c1.865,1.866,3.535,3.899,4.994,6.095c1.465,2.198,2.699,4.519,3.704,6.961c1.002,2.44,1.757,4.959,2.261,7.548
		c0.503,2.592,0.751,5.208,0.736,7.848v16.34c2.885-4.505,6.048-8.803,9.493-12.893c3.447-4.093,7.143-7.945,11.091-11.553
		c3.949-3.61,8.112-6.95,12.496-10.016c4.378-3.068,8.941-5.837,13.686-8.313c4.74-2.472,9.627-4.627,14.648-6.464
		c5.022-1.837,10.147-3.341,15.365-4.511c5.219-1.169,10.493-1.997,15.819-2.479c5.33-0.482,10.665-0.618,16.01-0.406
		c78.296,0,123.769,52.643,123.769,133.084v187.199c0.044,2.607-0.171,5.189-0.645,7.752c-0.479,2.563-1.201,5.051-2.178,7.467
		c-0.977,2.41-2.187,4.705-3.621,6.877c-1.44,2.178-3.08,4.184-4.921,6.023c-1.845,1.846-3.85,3.486-6.022,4.92
		c-2.172,1.441-4.466,2.646-6.882,3.623c-2.417,0.977-4.906,1.703-7.463,2.178c-2.563,0.471-5.146,0.686-7.752,0.645
		c-2.636,0.066-5.247-0.125-7.844-0.578c-2.598-0.459-5.12-1.166-7.57-2.127c-2.455-0.963-4.787-2.158-6.999-3.588
		c-2.217-1.426-4.266-3.061-6.15-4.9c-1.885-1.846-3.568-3.852-5.052-6.033c-1.479-2.178-2.733-4.48-3.754-6.908
		c-1.019-2.43-1.787-4.938-2.304-7.521c-0.517-2.58-0.775-5.193-0.771-7.828v-162.653c0-53.972-26.981-84.952-74.377-84.952
		c-46.063,0-78.298,32.311-78.298,86.282v161.323c-0.107,2.543-0.458,5.051-1.049,7.527c-0.591,2.473-1.41,4.869-2.459,7.189
		c-1.05,2.318-2.311,4.516-3.779,6.594c-1.47,2.074-3.123,3.992-4.959,5.756c-1.841,1.756-3.826,3.328-5.964,4.709
		c-2.138,1.377-4.389,2.543-6.751,3.49c-2.361,0.945-4.788,1.664-7.287,2.148c-2.5,0.482-5.018,0.723-7.566,0.723
		c-2.542,0-5.066-0.24-7.56-0.723c-2.499-0.484-4.931-1.203-7.292-2.148c-2.359-0.947-4.608-2.113-6.746-3.49
		c-2.139-1.381-4.13-2.953-5.965-4.709c-1.84-1.764-3.49-3.682-4.965-5.756c-1.469-2.078-2.728-4.275-3.777-6.594
		c-1.05-2.32-1.868-4.717-2.459-7.189c-0.586-2.477-0.938-4.984-1.049-7.527L2109.028,1268.273z M1989.18,1268.125
		c-0.05-2.621,0.161-5.22,0.629-7.799c0.475-2.58,1.191-5.088,2.163-7.525c0.972-2.435,2.172-4.75,3.602-6.948
		c1.435-2.196,3.07-4.226,4.91-6.098c1.836-1.871,3.841-3.539,6.015-5.008c2.171-1.469,4.465-2.709,6.887-3.719
		c2.42-1.011,4.914-1.774,7.486-2.288c2.572-0.512,5.17-0.766,7.79-0.762c2.642-0.014,5.258,0.232,7.844,0.735
		c2.593,0.505,5.111,1.259,7.552,2.262c2.445,1.003,4.764,2.239,6.961,3.7c2.195,1.464,4.23,3.131,6.095,4.999
		c1.87,1.864,3.536,3.897,4.999,6.096c1.464,2.196,2.695,4.516,3.699,6.958c1.007,2.442,1.757,4.959,2.262,7.551
		c0.507,2.591,0.75,5.207,0.735,7.845v280.215c-0.112,2.539-0.458,5.047-1.049,7.521c-0.591,2.48-1.411,4.877-2.46,7.189
		c-1.049,2.32-2.31,4.52-3.778,6.594c-1.47,2.08-3.124,4-4.964,5.756c-1.834,1.762-3.822,3.328-5.959,4.709
		c-2.143,1.383-4.389,2.545-6.751,3.49c-2.362,0.953-4.793,1.666-7.288,2.148c-2.499,0.484-5.021,0.727-7.565,0.727
		c-2.542,0-5.066-0.242-7.565-0.727c-2.5-0.482-4.925-1.195-7.286-2.148c-2.364-0.945-4.613-2.107-6.751-3.49
		c-2.138-1.381-4.125-2.947-5.965-4.709c-1.835-1.756-3.49-3.676-4.96-5.756c-1.469-2.074-2.728-4.273-3.777-6.594
		c-1.049-2.313-1.868-4.709-2.46-7.189c-0.59-2.475-0.941-4.982-1.049-7.521V1268.125z M1752.366,1267.979
		c-0.054-2.624,0.151-5.226,0.621-7.808c0.463-2.583,1.18-5.092,2.151-7.529c0.967-2.438,2.168-4.757,3.602-6.956
		c1.432-2.196,3.065-4.231,4.906-6.101c1.84-1.872,3.847-3.541,6.019-5.01c2.177-1.469,4.476-2.706,6.896-3.717
		c2.422-1.01,4.917-1.77,7.494-2.28c2.571-0.507,5.169-0.758,7.794-0.746c2.641-0.021,5.257,0.218,7.854,0.722
		c2.593,0.5,5.111,1.251,7.557,2.252c2.445,1.003,4.763,2.236,6.966,3.697c2.195,1.465,4.23,3.131,6.101,4.999
		c1.864,1.866,3.534,3.899,4.999,6.102c1.458,2.199,2.693,4.52,3.693,6.965c1.002,2.442,1.754,4.96,2.256,7.555
		s0.742,5.21,0.722,7.855v19.147c3.992-29.574,52.716-59.149,87.537-59.149c2.642-0.185,5.271-0.09,7.893,0.288
		c2.616,0.379,5.169,1.03,7.647,1.958c2.48,0.926,4.833,2.104,7.059,3.537c2.227,1.433,4.275,3.083,6.145,4.955
		c1.875,1.872,3.524,3.921,4.961,6.147c1.43,2.226,2.606,4.578,3.532,7.059c0.929,2.482,1.576,5.029,1.959,7.651
		c0.374,2.618,0.472,5.248,0.287,7.89c0.077,2.262-0.054,4.512-0.386,6.752c-0.331,2.242-0.859,4.433-1.592,6.575
		c-0.727,2.142-1.645,4.202-2.747,6.18c-1.108,1.977-2.378,3.839-3.822,5.583c-1.44,1.746-3.026,3.349-4.758,4.806
		c-1.733,1.457-3.583,2.747-5.552,3.867c-1.965,1.124-4.016,2.059-6.153,2.808c-2.138,0.749-4.325,1.3-6.562,1.652
		c-56.633,9.833-95.448,59.147-95.448,127.98v114.597c-0.014,2.617-0.287,5.207-0.81,7.77c-0.528,2.563-1.304,5.053-2.319,7.459
		c-1.02,2.412-2.265,4.699-3.733,6.863c-1.47,2.166-3.139,4.164-5.004,5.998c-1.863,1.836-3.889,3.471-6.082,4.906
		c-2.187,1.43-4.494,2.637-6.92,3.617c-2.426,0.977-4.926,1.703-7.497,2.191c-2.572,0.482-5.165,0.707-7.781,0.68
		c-2.595,0.018-5.174-0.215-7.727-0.709c-2.547-0.494-5.027-1.23-7.429-2.217c-2.405-0.984-4.69-2.197-6.853-3.637
		c-2.163-1.439-4.158-3.078-5.999-4.914c-1.836-1.836-3.476-3.838-4.915-5.998c-1.44-2.164-2.65-4.447-3.637-6.854
		c-0.985-2.402-1.724-4.883-2.216-7.43c-0.493-2.553-0.727-5.125-0.708-7.727V1267.979z M1641.246,1408.378v-1.33
		c0-67.133-45.473-110.9-99.447-110.9c-53.97,0-101.361,44.805-101.361,110.9v1.33c0,66.543,47.392,110.905,101.361,110.905
		c53.975,0,99.447-42.44,99.447-111.126V1408.378z M1362.73,1267.904c-0.054-2.62,0.152-5.218,0.618-7.798
		c0.466-2.577,1.182-5.085,2.148-7.521c0.966-2.436,2.164-4.752,3.593-6.946c1.43-2.196,3.062-4.229,4.897-6.102
		c1.836-1.869,3.836-3.539,6.006-5.008c2.17-1.471,4.464-2.711,6.879-3.724c2.419-1.01,4.91-1.771,7.48-2.285
		c2.57-0.515,5.168-0.77,7.785-0.761c2.642-0.018,5.258,0.229,7.849,0.733c2.593,0.504,5.107,1.259,7.552,2.262
		c2.44,1.003,4.762,2.237,6.958,3.702c2.195,1.463,4.229,3.128,6.096,4.995c1.868,1.868,3.531,3.897,4.996,6.097
		c1.464,2.198,2.696,4.515,3.703,6.959c1.001,2.442,1.757,4.958,2.259,7.55c0.506,2.592,0.749,5.208,0.734,7.847v24.104
		c25.655-36.23,61.882-65.212,118.298-65.212c81.327,0,161.249,64.473,161.249,180.402v1.329
		c0,115.192-79.033,180.327-161.249,180.327c-57.895,0-94.118-28.98-118.298-61.219v122.732c-0.001,2.617-0.261,5.203-0.773,7.768
		c-0.514,2.563-1.272,5.051-2.273,7.467c-1.004,2.412-2.234,4.705-3.688,6.877c-1.455,2.178-3.106,4.184-4.954,6.033
		c-1.854,1.846-3.864,3.496-6.038,4.945c-2.176,1.453-4.47,2.68-6.885,3.68c-2.418,0.996-4.906,1.752-7.472,2.266
		c-2.563,0.508-5.151,0.76-7.768,0.76c-2.613,0-5.204-0.252-7.769-0.76c-2.563-0.514-5.052-1.27-7.468-2.266
		c-2.417-1-4.711-2.227-6.888-3.68c-2.171-1.449-4.185-3.1-6.035-4.945c-1.85-1.85-3.502-3.855-4.956-6.033
		c-1.455-2.172-2.683-4.465-3.686-6.877c-1.003-2.416-1.762-4.904-2.274-7.467c-0.512-2.564-0.771-5.15-0.774-7.768
		L1362.73,1267.904z M1071.208,1546.344c-2.365-1.426-4.498-3.139-6.4-5.141c-1.9-2.002-3.502-4.217-4.803-6.652
		c-1.303-2.432-2.258-4.994-2.864-7.688c-0.608-2.689-0.848-5.418-0.72-8.17c-0.025-2.129,0.161-4.238,0.559-6.326
		c0.396-2.09,0.997-4.121,1.801-6.092c0.803-1.967,1.794-3.838,2.972-5.604c1.179-1.773,2.519-3.409,4.024-4.913
		c1.507-1.501,3.146-2.841,4.921-4.015c1.771-1.174,3.646-2.159,5.615-2.957c1.973-0.801,4.003-1.396,6.092-1.787
		c2.091-0.393,4.2-0.575,6.325-0.543c6.095,0.031,11.789,1.559,17.079,4.583c14.682,10.375,30.543,18.417,47.588,24.134
		c17.045,5.715,34.552,8.859,52.52,9.43c34.233,0,53.972-14.785,53.972-37.558v-1.256c0-26.986-36.967-36.227-77.704-48.722
		c-51.311-14.787-108.609-35.563-108.609-102.031v-1.33c0-65.877,54.637-106.023,123.767-106.023
		c18.981,0.357,37.66,2.932,56.031,7.731c18.369,4.798,35.919,11.686,52.651,20.659c2.848,1.384,5.45,3.131,7.808,5.242
		c2.356,2.114,4.381,4.507,6.066,7.188c1.687,2.679,2.97,5.537,3.854,8.579c0.885,3.038,1.332,6.139,1.346,9.305
		c0.018,2.15-0.183,4.283-0.594,6.394c-0.414,2.112-1.033,4.16-1.857,6.146c-0.825,1.988-1.841,3.871-3.043,5.653
		c-1.204,1.784-2.574,3.428-4.107,4.934c-1.536,1.509-3.206,2.847-5.009,4.017c-1.804,1.172-3.707,2.153-5.709,2.942
		c-2,0.788-4.061,1.371-6.177,1.744c-2.117,0.376-4.253,0.535-6.403,0.481c-5.61,0.1-10.859-1.233-15.749-3.994
		c-28.317-14.787-57.298-23.733-81.328-23.733c-30.903,0-48.722,14.787-48.722,34.233v1.33c0,25.655,37.561,36.229,78.37,49.389
		c50.719,15.822,107.946,38.816,107.946,101.365v1.33c0,73.047-56.635,109.201-129.018,109.201
		c-23.653-0.162-46.768-3.773-69.344-10.842C1111.78,1569.908,1090.731,1559.699,1071.208,1546.344L1071.208,1546.344z
		 M804.008,1563.939c-88.353,117.701-277.032,77.998-397.989,83.691c0,0-21.442,1.258-43.031,4.807c0,0,8.134-3.477,18.558-7.395
		c84.952-29.574,125.099-35.266,176.706-61.809c97.148-49.387,193.264-157.555,213.228-270.009
		c-36.969,108.166-149.201,201.177-251.378,238.956c-70.017,25.805-196.52,50.943-196.52,50.943l-5.101-2.738
		c-86.061-41.846-88.724-228.235,67.797-288.344c68.537-26.395,134.118-11.902,208.127-29.573
		c79.035-18.779,170.491-78,207.684-155.262c41.622,123.617,91.75,317.105,1.847,436.806L804.008,1563.939z M318.258,1671.141
		c-1.265,1.568-2.67,2.988-4.215,4.277c-1.545,1.283-3.202,2.406-4.969,3.367c-1.765,0.957-3.609,1.738-5.528,2.334
		c-1.92,0.594-3.88,1-5.878,1.211c-2,0.209-4.001,0.219-6.002,0.037c-2.001-0.186-3.966-0.561-5.894-1.131
		c-1.929-0.572-3.78-1.328-5.56-2.266c-1.779-0.932-3.451-2.035-5.013-3.299c-1.563-1.266-2.985-2.67-4.271-4.219
		c-1.283-1.547-2.405-3.201-3.365-4.969c-0.959-1.768-1.734-3.611-2.33-5.529s-0.999-3.881-1.208-5.877
		c-0.21-2-0.223-4.002-0.04-6.004c0.186-2,0.564-3.969,1.136-5.891c0.573-1.928,1.327-3.783,2.262-5.561
		c0.938-1.781,2.037-3.449,3.305-5.012c1.267-1.563,2.672-2.984,4.217-4.266c1.548-1.289,3.205-2.406,4.972-3.369
		c1.767-0.957,3.609-1.732,5.53-2.328s3.881-0.996,5.879-1.205c2.002-0.211,4-0.221,6.002-0.035
		c2.003,0.186,3.965,0.563,5.894,1.133c1.928,0.576,3.78,1.328,5.56,2.266c1.776,0.936,3.446,2.039,5.008,3.309
		c1.559,1.264,2.981,2.67,4.266,4.213c1.281,1.547,2.404,3.201,3.36,4.969c0.957,1.762,1.733,3.605,2.329,5.523
		c0.595,1.92,0.995,3.877,1.205,5.873c0.21,2.002,0.223,3.998,0.039,5.998c-0.186,2.002-0.562,3.965-1.132,5.887
		c-0.572,1.93-1.323,3.779-2.261,5.555C320.62,1667.914,319.522,1669.584,318.258,1671.141z M805.486,1088.835
		c-10.037,24.061-22.755,46.608-38.149,67.648c-4.176-4.173-8.454-8.244-12.833-12.204c-4.378-3.964-8.851-7.817-13.419-11.559
		c-4.569-3.743-9.229-7.371-13.976-10.879c-4.749-3.512-9.582-6.904-14.496-10.177c-4.915-3.272-9.912-6.421-14.983-9.445
		c-5.071-3.026-10.212-5.925-15.429-8.695c-5.215-2.77-10.496-5.411-15.841-7.919c-5.348-2.509-10.751-4.886-16.215-7.129
		c-5.462-2.24-10.977-4.346-16.546-6.315c-5.567-1.97-11.181-3.8-16.838-5.492c-5.659-1.691-11.355-3.241-17.09-4.652
		c-5.733-1.407-11.501-2.677-17.3-3.799c-5.796-1.125-11.618-2.106-17.464-2.941c-5.845-0.837-11.71-1.528-17.589-2.075
		c-5.882-0.546-11.771-0.946-17.669-1.201c-5.901-0.256-11.805-0.363-17.708-0.327c-5.906,0.037-11.808,0.223-17.704,0.55
		c-5.896,0.329-11.78,0.805-17.655,1.425c-5.871,0.62-11.726,1.386-17.559,2.296c-5.836,0.911-11.645,1.964-17.428,3.16
		c-5.781,1.198-11.532,2.539-17.249,4.02c-5.716,1.481-11.394,3.104-17.028,4.867c-5.638,1.765-11.227,3.665-16.769,5.703
		c-5.543,2.041-11.031,4.215-16.467,6.526c-5.432,2.311-10.807,4.753-16.122,7.331c-5.313,2.578-10.56,5.284-15.738,8.12
		c-5.182,2.838-10.286,5.801-15.319,8.888c-5.034,3.09-9.986,6.302-14.86,9.636c-4.875,3.333-9.664,6.787-14.367,10.359
		c-4.703,3.571-9.315,7.256-13.837,11.056c-4.521,3.797-8.945,7.707-13.271,11.725c-4.33,4.019-8.555,8.141-12.679,12.369
		c-4.122,4.227-8.14,8.554-12.049,12.98c-3.91,4.425-7.707,8.947-11.395,13.56c-3.686,4.616-7.256,9.315-10.706,14.107
		c-3.454,4.79-6.788,9.664-10,14.62c-3.212,4.954-6.301,9.987-9.264,15.095c-2.963,5.108-5.799,10.287-8.506,15.536
		c-2.706,5.247-5.281,10.562-7.727,15.938c-2.442,5.373-4.754,10.809-6.928,16.297c-2.175,5.492-4.216,11.032-6.117,16.623
		c-1.9,5.591-3.66,11.226-5.283,16.904c-1.622,5.678-3.104,11.392-4.444,17.146c-1.34,5.749-2.535,11.531-3.59,17.342
		c-1.052,5.811-1.962,11.643-2.726,17.498c-0.767,5.858-1.387,11.73-1.86,17.617c-0.476,5.886-0.803,11.779-0.985,17.681
		c-0.184,5.902-0.22,11.806-0.109,17.71c0.107,5.907,0.363,11.803,0.764,17.697c0.401,5.891,0.949,11.77,1.64,17.634
		c0.692,5.864,1.527,11.708,2.509,17.531c0.981,5.825,2.106,11.62,3.375,17.388c1.268,5.768,2.677,11.499,4.229,17.2
		c1.55,5.699,3.241,11.352,5.074,16.965c1.83,5.617,3.8,11.182,5.905,16.697c2.109,5.518,4.35,10.979,6.727,16.387
		c2.377,5.402,4.886,10.748,7.529,16.029c2.641,5.287,5.41,10.498,8.31,15.645c2.899,5.143,5.923,10.209,9.074,15.209
		c3.15,4.994,6.423,9.908,9.815,14.74s6.904,9.582,10.533,14.238c3.626,4.662,7.368,9.229,11.222,13.701
		c3.856,4.477,7.816,8.854,11.887,13.129c4.071,4.281,8.247,8.455,12.522,12.525l13.235,11.686
		c12.564,10.582,25.794,20.256,39.689,29.021c13.896,8.768,28.328,16.531,43.296,23.313c14.965,6.775,30.325,12.496,46.079,17.156
		c15.753,4.662,31.754,8.219,47.997,10.68c16.244,2.461,32.579,3.793,49.006,4.002c16.43,0.211,32.793-0.707,49.096-2.754
		c16.3-2.043,32.386-5.197,48.251-9.457c15.869-4.256,31.368-9.586,46.502-15.98c15.133-6.395,29.757-13.795,43.873-22.199
		c14.114-8.41,27.585-17.744,40.415-28.008c12.83-10.266,24.895-21.354,36.195-33.279c11.302-11.924,21.732-24.57,31.295-37.93
		c9.56-13.359,18.16-27.314,25.798-41.859c7.639-14.547,14.246-29.545,19.819-44.998c5.575-15.453,10.062-31.22,13.465-47.293
		c3.401-16.07,5.688-32.303,6.854-48.69C877.943,1341.321,851.178,1225.983,805.486,1088.835L805.486,1088.835z"/>
	<path fill="#68BD45" d="M2069.174,1132.013c0,2.636-0.254,5.248-0.771,7.832c-0.514,2.584-1.274,5.096-2.284,7.531
		c-1.007,2.437-2.245,4.749-3.709,6.941c-1.465,2.192-3.13,4.22-4.994,6.083c-1.859,1.865-3.89,3.527-6.082,4.994
		c-2.191,1.463-4.505,2.699-6.94,3.709c-2.437,1.008-4.945,1.769-7.531,2.284c-2.588,0.513-5.194,0.771-7.835,0.771
		c-2.637,0-5.241-0.258-7.829-0.771c-2.586-0.515-5.095-1.276-7.531-2.284c-2.436-1.011-4.749-2.246-6.941-3.709
		c-2.191-1.467-4.222-3.129-6.085-4.994c-1.86-1.864-3.525-3.892-4.989-6.083c-1.463-2.192-2.703-4.505-3.71-6.941
		c-1.01-2.435-1.771-4.946-2.289-7.531c-0.512-2.584-0.771-5.196-0.771-7.832c0-2.636,0.259-5.248,0.775-7.832
		c0.514-2.586,1.274-5.095,2.284-7.531c1.007-2.436,2.247-4.749,3.71-6.941c1.464-2.191,3.129-4.22,4.989-6.083
		c1.863-1.865,3.894-3.53,6.085-4.993c2.192-1.464,4.506-2.702,6.941-3.71c2.437-1.008,4.945-1.769,7.531-2.283
		c2.588-0.515,5.192-0.772,7.829-0.772c2.641,0,5.247,0.257,7.835,0.772c2.586,0.515,5.095,1.275,7.531,2.283
		c2.436,1.008,4.749,2.246,6.94,3.71c2.192,1.463,4.223,3.128,6.082,4.993c1.864,1.864,3.529,3.893,4.994,6.083
		c1.464,2.192,2.702,4.506,3.709,6.941c1.01,2.436,1.771,4.944,2.284,7.531C2068.92,1126.765,2069.174,1129.376,2069.174,1132.013z"
		/>
	<path fill="#8A8C8E" d="M2078.193,1936.494c2.095,0.818,4.263,1.238,6.508,1.26c1.269,0.086,2.518-0.039,3.739-0.387
		c1.225-0.342,2.356-0.879,3.392-1.615c1.04-0.732,1.923-1.621,2.656-2.66c0.727-1.039,1.264-2.172,1.6-3.396l5.027-11.607
		l-32.016-77.34h13.239l25.508,62.77l25.356-62.77h13.013l-38.369,92.051c-0.777,2.309-1.894,4.441-3.354,6.395
		c-1.458,1.951-3.187,3.627-5.179,5.021c-1.996,1.396-4.163,2.445-6.496,3.148c-2.334,0.703-4.721,1.025-7.155,0.963
		c-2.948-0.039-5.858-0.412-8.724-1.109L2078.193,1936.494z M2026.515,1908.623c15.526,0,24.697-12.496,24.697-29.574
		c0-17.08-9.171-29.574-24.692-29.574c-4.569,0.104-8.865,1.244-12.881,3.422c-4.013,2.182-7.313,5.154-9.895,8.922v34.676
		c2.586,3.748,5.892,6.691,9.914,8.834c4.016,2.139,8.307,3.236,12.861,3.295H2026.515z M1991.839,1917.346v-105.729h11.905v40.742
		c2.963-4.197,6.721-7.482,11.271-9.855c4.554-2.375,9.396-3.578,14.53-3.602c19.964,0,34.084,15.818,34.084,40.219
		c0,24.396-14.12,40.074-34.084,40.074c-5.109-0.045-9.942-1.236-14.487-3.578c-4.544-2.344-8.316-5.588-11.313-9.732v11.389
		L1991.839,1917.346z M2828.706,1903.297c2.737,0,4.363-1.406,4.363-3.547c0-2.143-1.479-3.477-4.583-3.477h-2.739v7.395
		L2828.706,1903.297z M2825.747,1910.693h-1.771v-16.342h5.101c4.14,0,6.135,1.922,6.135,4.953c0.021,1.059-0.278,2.016-0.893,2.881
		c-0.616,0.857-1.425,1.453-2.437,1.775l4.219,6.732h-2.07l-3.921-6.289h-3.918L2825.747,1910.693z M2829.077,1889.768
		c-1.709-0.01-3.349,0.307-4.931,0.951c-1.581,0.645-2.978,1.568-4.188,2.764c-1.215,1.201-2.152,2.586-2.813,4.158
		c-0.664,1.572-1,3.211-1.01,4.92c-0.01,1.703,0.309,3.348,0.953,4.926c0.643,1.58,1.565,2.977,2.762,4.191
		c1.2,1.211,2.588,2.148,4.158,2.813c1.571,0.658,3.213,0.996,4.921,1.006c1.703,0.008,3.348-0.309,4.924-0.951
		c1.581-0.641,2.979-1.563,4.193-2.764c1.21-1.201,2.148-2.588,2.812-4.16c0.664-1.57,0.996-3.209,1.005-4.914
		c0.01-1.709-0.302-3.357-0.946-4.939c-0.645-1.588-1.563-2.986-2.763-4.209c-1.196-1.215-2.582-2.16-4.158-2.83
		c-1.572-0.668-3.212-1.014-4.92-1.035V1889.768z M2814.287,1902.707c0-1.963,0.376-3.846,1.128-5.662
		c0.752-1.811,1.82-3.406,3.207-4.793c1.386-1.387,2.981-2.455,4.793-3.205c1.815-0.752,3.7-1.129,5.662-1.129
		s3.846,0.377,5.656,1.129c1.811,0.75,3.412,1.818,4.8,3.205c1.385,1.387,2.455,2.982,3.205,4.793
		c0.747,1.816,1.123,3.699,1.123,5.662c0,1.961-0.376,3.846-1.123,5.656c-0.75,1.811-1.82,3.414-3.205,4.799
		c-1.388,1.387-2.989,2.455-4.8,3.207c-1.811,0.748-3.694,1.123-5.656,1.123s-3.847-0.375-5.657-1.123
		c-1.816-0.752-3.412-1.82-4.798-3.207c-1.387-1.385-2.455-2.988-3.207-4.799S2814.287,1904.668,2814.287,1902.707z
		 M2611.34,1785.074v23.439h36.968v17.596h-36.968v63.439c0,9.98,6.358,10.201,15.6,10.201h21.441v17.596h-28.984
		c-21.441,0-30.979-8.578-30.979-27.797v-101.365L2611.34,1785.074z M2232.645,1770.508h-39.849v146.838h23.585v-126.43h21.808
		c20.481,0.371,30.464,8.504,30.464,24.4v1.699c0,14.791-8.059,24.475-30.39,24.475h-6.58v19.738h6.657
		c32.011,0,54.634-12.568,54.634-44.357v-1.926c0-32.75-24.62-45.1-60.329-45.1 M2778.284,1770.508h22.697v146.838h-22.697V1770.508
		z M2752.26,1811.988c-13.839-3.221-27.861-4.896-42.07-5.027c-29.574,0-48.277,18.777-48.277,49.094v11.904
		c0,30.238,18.483,49.387,48.277,49.387h8.43v-18.26h-8.43c-16.19,0-27.134-12.496-27.134-31.127v-11.904
		c0-18.631,10.864-31.127,27.134-31.127c7.425-0.049,14.818,0.42,22.179,1.406h1.187v90.713h22.697v-101.285
		c0-1.924,0-2.666-4.139-3.773 M2521.211,1901.965c1.928,0.043,3.842-0.107,5.741-0.459c1.893-0.355,3.737-0.896,5.52-1.631
		c1.782-0.736,3.476-1.645,5.066-2.732c1.596-1.084,3.061-2.324,4.403-3.715c1.336-1.387,2.518-2.898,3.539-4.533
		c1.023-1.635,1.869-3.359,2.537-5.17c0.663-1.811,1.137-3.672,1.415-5.58c0.283-1.908,0.362-3.826,0.243-5.754v-17.078
		c0.123-1.924,0.051-3.846-0.229-5.754c-0.273-1.914-0.741-3.775-1.404-5.59c-0.67-1.811-1.509-3.539-2.534-5.174
		s-2.206-3.152-3.544-4.543c-1.338-1.393-2.807-2.627-4.402-3.717c-1.601-1.084-3.289-1.99-5.076-2.723
		c-1.787-0.736-3.633-1.273-5.531-1.625c-1.898-0.348-3.811-0.498-5.744-0.449c-1.938-0.088-3.871,0.025-5.784,0.348
		c-1.917,0.322-3.777,0.838-5.584,1.555c-1.806,0.725-3.514,1.621-5.13,2.705c-1.609,1.084-3.089,2.328-4.437,3.729
		c-1.353,1.396-2.534,2.924-3.553,4.578c-1.025,1.656-1.861,3.398-2.509,5.229c-0.65,1.83-1.1,3.711-1.343,5.639
		c-0.25,1.926-0.288,3.859-0.123,5.793v17.078c-0.15,1.934-0.092,3.861,0.167,5.779c0.258,1.924,0.718,3.793,1.376,5.619
		c0.654,1.818,1.493,3.557,2.514,5.203c1.025,1.645,2.206,3.168,3.548,4.563c1.348,1.396,2.822,2.637,4.428,3.719
		c1.606,1.09,3.305,1.992,5.105,2.715c1.796,0.729,3.65,1.254,5.56,1.592C2517.354,1901.912,2519.277,1902.039,2521.211,1901.965
		 M2521.211,1808.514c29.574,0,49.836,19.373,49.836,47.17v17.078c0,27.725-20.481,47.17-49.836,47.17
		c-29.35,0-49.903-19.445-49.903-47.17v-17.078C2471.308,1827.887,2491.861,1808.514,2521.211,1808.514 M2465.318,1808.514
		l-31.645,94.047c-0.687,2.504-1.761,4.832-3.216,6.984c-1.455,2.158-3.217,4.018-5.281,5.594c-2.069,1.576-4.335,2.777-6.794,3.613
		c-2.466,0.828-4.993,1.244-7.591,1.244c-2.602,0-5.13-0.416-7.594-1.244c-2.462-0.836-4.726-2.037-6.79-3.613
		c-2.07-1.576-3.831-3.436-5.286-5.594c-1.455-2.152-2.523-4.48-3.212-6.984l-26.323-78.223h-10.425v-15.973h26.914l27.131,87.393
		c1.188,3.693,1.925,5.988,5.254,5.988c3.323,0,4.064-2.295,5.174-5.988l27.724-87.393L2465.318,1808.514z M2334.307,1917.418
		h-22.774v-108.904h22.702L2334.307,1917.418z M2334.307,1792.471h-22.774v-22.18h22.628L2334.307,1792.471z"/>
</g>
</svg>
